<svg xmlns="http://www.w3.org/2000/svg" xmlns:xlink="http://www.w3.org/1999/xlink" style="shape-rendering:geometricPrecision;text-rendering:geometricPrecision;image-rendering:optimizeQuality;fill-rule:evenodd;clip-rule:evenodd" width="100%" height="100%" version="1.1" viewBox="0 0 4265 3776" xml:space="preserve"><defs><style type="text/css">.fil0{fill:#fdd011}.fil1{fill:#fefefe}.fil1,.fil2,.fil3,.fil4{fill-rule:nonzero}.fil4{fill:#332c2b}.fil3{fill:#e62129}.fil2{fill:#e1292e}</style></defs><g id="Layer_x0020_1"><metadata id="CorelCorpID_0Corel-Layer"/><rect width="4265" height="3776" class="fil0"/><g id="_580072592"><path d="M3757 2008c0,-87 -23,-172 -67,-247 44,-75 67,-160 67,-247 0,-266 -214,-482 -477,-482l-491 1c-92,0 -117,76 -118,116l0 131c-109,-149 -287,-250 -479,-250 -127,0 -252,39 -354,110 -103,-71 -228,-110 -355,-110 -200,0 -385,110 -493,269l0 -32 0 -12c-3,-61 -29,-117 -70,-158 43,-43 70,-103 70,-170 0,-133 -108,-241 -241,-241 -133,0 -241,108 -241,241 0,67 27,127 70,171 -42,42 -68,100 -70,164l0 754 0 0 0 775c0,165 134,298 298,298l2652 0c165,0 299,-133 299,-298l0 -783z" class="fil1"/><path d="M626 927c0,-68 55,-123 123,-123 68,0 123,55 123,123 0,69 -55,124 -123,124 -68,0 -123,-55 -123,-124z" class="fil2"/><path d="M626 927c0,-68 55,-123 123,-123 68,0 123,55 123,123 0,69 -55,124 -123,124 -68,0 -123,-55 -123,-124z" class="fil3"/><path d="M749 1149c-65,0 -119,52 -124,120l0 1104 248 0 0 -1108c-4,-65 -59,-116 -124,-116z" class="fil4"/><path d="M2192 1147c-112,0 -222,37 -308,104l-46 36 -47 -36c-86,-67 -196,-104 -308,-104 -253,0 -476,218 -476,467l0 759 248 0 0 -756c0,-124 101,-221 228,-221 129,0 233,99 233,221l0 628c0,93 78,118 120,118 65,0 119,-52 121,-118l0 -628c0,-122 104,-221 232,-221 127,0 231,99 231,221l0 756 248 0 0 -759c0,-249 -223,-467 -476,-467z" class="fil4"/><path d="M3274 1878c70,0 127,58 127,128 0,71 -57,129 -128,129l-486 0 0 238 492 0c198,-1 359,-164 359,-365 0,-78 -25,-155 -71,-218l-21 -29 21 -29c46,-62 71,-140 71,-218 0,-201 -161,-365 -359,-365l-492 1 0 236 486 0c71,0 128,58 128,129 0,70 -57,128 -128,128l-262 0 -2 0c-64,0 -117,52 -117,117 0,65 53,118 117,118l265 0z" class="fil4"/><path d="M3522 2533c-33,-18 -71,-28 -112,-28 -40,0 -78,10 -111,28 -44,24 -80,60 -102,105 -22,-45 -57,-81 -101,-105 -33,-18 -71,-28 -112,-28 -40,0 -78,10 -112,28 -43,24 -79,61 -101,106 -22,-45 -58,-82 -102,-106 -33,-18 -71,-28 -112,-28 -40,0 -78,10 -111,28 -44,23 -79,60 -101,104 -22,-44 -57,-81 -101,-104 -33,-18 -71,-28 -112,-28 -40,0 -78,10 -111,28 -44,24 -80,60 -102,105 -21,-45 -57,-81 -101,-105 -33,-18 -71,-28 -112,-28 -40,0 -78,10 -111,28 -44,24 -80,60 -102,105 -21,-45 -57,-81 -101,-105 -33,-18 -71,-28 -112,-28 -40,0 -78,10 -111,28 -44,24 -80,60 -102,105 -21,-45 -57,-81 -101,-105 -33,-18 -71,-28 -112,-28 -40,0 -78,10 -112,28 -74,40 -125,118 -125,208 0,131 107,237 237,237 94,0 175,-54 213,-133 39,79 120,133 213,133 94,0 175,-54 213,-133 39,79 120,133 213,133 94,0 175,-54 213,-133 38,79 120,133 213,133 94,0 174,-54 213,-132 39,78 119,132 212,132 95,0 176,-55 214,-134 38,79 119,134 213,134 94,0 175,-54 213,-133 38,79 120,133 213,133 131,0 237,-106 237,-237 0,-90 -50,-168 -125,-208z" class="fil3"/><path d="M939 2656c-11,-11 -24,-19 -38,-26 -15,-6 -31,-9 -47,-9 -17,0 -33,3 -48,9 -14,7 -27,15 -38,26 -10,11 -19,24 -25,39 -7,14 -10,30 -10,47 0,16 3,32 10,47 6,14 15,27 25,38 11,10 24,19 38,26 15,6 31,9 47,9 17,0 33,-3 48,-9 14,-7 27,-16 38,-26 11,-11 19,-24 25,-38 7,-15 10,-31 10,-47 0,-17 -3,-33 -10,-47 -6,-15 -14,-28 -25,-39zm-19 113l0 0c-4,9 -9,17 -15,24 -7,6 -14,11 -23,15 -9,4 -19,6 -28,6 -10,0 -20,-2 -28,-6 -9,-4 -17,-9 -24,-15 -6,-7 -11,-15 -15,-24 -4,-8 -6,-18 -6,-28 0,-9 2,-19 6,-28 4,-9 9,-16 15,-23 7,-7 15,-12 24,-16 8,-3 18,-5 28,-5 9,0 19,2 28,5 9,4 16,9 23,16 6,7 11,14 15,23 8,18 8,39 0,56z" class="fil1"/><path d="M1365 2656c-11,-11 -24,-19 -38,-26 -15,-6 -30,-9 -47,-9 -17,0 -33,3 -48,9 -14,7 -27,15 -38,26 -10,11 -19,24 -25,39 -7,14 -10,30 -10,47 0,16 3,32 10,47 6,14 15,27 25,38 11,10 24,19 38,26 15,6 31,9 48,9 17,0 32,-3 47,-9 14,-7 27,-16 38,-26 10,-11 19,-24 26,-38 6,-15 9,-31 9,-47 0,-17 -3,-33 -9,-47 -7,-15 -16,-28 -26,-39zm-19 113l0 0c-3,9 -9,17 -15,24 -7,6 -14,11 -23,15 -9,4 -19,6 -28,6 -10,0 -20,-2 -28,-6 -9,-4 -17,-9 -24,-15 -6,-7 -11,-15 -15,-24 -4,-8 -6,-18 -6,-28 0,-9 2,-19 6,-28 4,-9 9,-16 15,-23 7,-7 15,-12 24,-16 8,-3 18,-5 28,-5 9,0 19,2 28,5 9,4 16,9 23,16 6,7 12,14 15,23 8,18 8,39 0,56z" class="fil1"/><path d="M3069 2656c-11,-11 -24,-19 -38,-26 -15,-6 -31,-9 -47,-9 -17,0 -33,3 -47,9 -15,7 -28,15 -39,26 -10,11 -19,24 -25,39 -6,14 -10,30 -10,47 0,16 4,32 10,47 6,14 15,27 25,38 11,10 24,19 39,26 14,6 30,9 47,9 16,0 32,-3 47,-9 14,-7 27,-16 38,-26 11,-11 19,-24 26,-38 6,-15 9,-31 9,-47 0,-17 -3,-33 -9,-47 -7,-15 -15,-28 -26,-39zm-19 113l0 0c-4,9 -9,17 -15,24 -7,6 -15,11 -23,15 -9,4 -19,6 -28,6 -10,0 -20,-2 -29,-6 -8,-4 -16,-9 -22,-15 -7,-7 -12,-15 -16,-24 -4,-8 -6,-18 -6,-28 0,-9 2,-19 6,-28 4,-9 9,-16 16,-23 6,-7 14,-12 22,-16 9,-3 19,-5 29,-5 9,0 19,2 28,5 8,4 16,9 23,16 6,7 11,14 15,23 8,18 8,39 0,56z" class="fil1"/><path d="M3495 2656c-10,-11 -24,-19 -38,-26 -15,-6 -30,-9 -47,-9 -17,0 -33,3 -47,9 -15,7 -27,15 -39,26 -10,11 -19,24 -25,39 -7,14 -10,30 -10,47 0,16 3,32 10,47 6,14 15,27 25,38 12,10 24,19 39,26 14,6 30,9 47,9 17,0 32,-3 47,-9 14,-7 28,-16 38,-26 11,-11 19,-24 26,-38 6,-15 9,-31 9,-47 0,-17 -3,-33 -9,-47 -7,-15 -15,-28 -26,-39zm-19 113l0 0c-4,9 -9,17 -15,24 -7,6 -14,11 -23,15 -9,4 -18,6 -28,6 -10,0 -19,-2 -28,-6 -9,-4 -17,-9 -23,-15 -7,-7 -12,-15 -16,-24 -3,-8 -6,-18 -6,-28 0,-9 3,-19 6,-28 4,-9 9,-16 16,-23 6,-7 14,-12 23,-16 9,-3 18,-5 28,-5 10,0 19,2 28,5 9,4 16,9 23,16 6,7 11,14 15,23 8,18 8,39 0,56z" class="fil1"/><path d="M1757 2689c6,7 12,15 16,24 2,4 3,9 4,15l49 0c-2,-13 -4,-24 -9,-35 -6,-14 -15,-27 -26,-38 -10,-10 -23,-19 -38,-26 -14,-6 -30,-9 -47,-9 -17,0 -33,3 -47,9 -15,6 -28,15 -38,25 -11,11 -20,24 -26,39 -6,15 -10,30 -10,47l0 115 48 0 0 -23 0 -95 1 0c0,-9 2,-17 5,-24 4,-9 10,-17 16,-24 6,-6 14,-11 23,-15 17,-8 38,-8 56,0 9,4 16,9 23,15z" class="fil1"/><path d="M2243 2697c-6,-15 -14,-28 -24,-40 -10,-11 -23,-20 -37,-27 -15,-6 -32,-10 -51,-10 -16,0 -32,3 -47,9 -14,7 -27,16 -37,26 -12,11 -20,24 -27,38 -6,15 -9,31 -9,47 0,17 3,33 9,47 7,15 15,28 27,39 10,11 23,19 37,26 15,6 31,9 47,9 13,0 25,-2 37,-5 13,-3 24,-9 34,-16 11,-8 21,-17 29,-29 8,-11 15,-25 19,-40l-53 0c-5,12 -13,22 -24,30 -12,8 -26,12 -42,12 -9,0 -18,-2 -27,-5 -9,-4 -16,-9 -23,-15 -6,-6 -11,-13 -15,-22 -5,-8 -7,-17 -7,-27l0 -2 193 0c0,-15 -3,-31 -9,-45zm-175 4l0 0 2 -4c11,-19 32,-29 62,-30 29,0 50,11 61,30l2 4 -127 0z" class="fil1"/><path d="M2678 2739l0 -201c-15,-9 -31,-16 -48,-22l0 133 -3 -4c-4,-3 -9,-7 -14,-10 -5,-3 -11,-6 -17,-8 -6,-2 -13,-4 -19,-6 -6,-1 -13,-2 -20,-2 -16,0 -32,4 -46,10 -15,6 -28,15 -39,25 -10,11 -19,24 -25,38 -7,15 -9,31 -9,47 0,17 2,33 9,48 6,14 15,27 25,38 11,11 24,20 39,26 14,6 30,9 46,9 17,0 33,-3 48,-9 15,-6 27,-15 38,-26 11,-10 20,-23 26,-38 6,-14 9,-30 9,-48zm-48 0l0 0c0,10 -2,20 -6,29 -4,9 -8,16 -15,23 -7,6 -14,11 -23,15 -9,4 -18,6 -29,6 -9,0 -18,-2 -27,-6 -9,-4 -17,-9 -24,-15 -6,-7 -11,-14 -15,-23 -4,-9 -6,-19 -6,-29 0,-9 2,-19 6,-27 4,-9 9,-17 15,-23 7,-7 15,-12 24,-16 17,-8 38,-8 56,0 9,4 16,9 23,16 7,6 11,14 15,23 4,8 6,18 6,27z" class="fil1"/></g></g></svg>